# Blender v2.79 (sub 0) OBJ File: ''
# www.blender.org
mtllib box1.mtl
o Mesh02
v 3.154568 2.895078 1.621795
v 3.154667 2.895078 1.621795
v 3.154667 2.895078 1.631795
v 3.154667 2.895078 1.631795
v 3.154568 2.895078 1.631795
vt 0.000000 0.000000
vt 0.000000 0.000000
vt 1.000000 1.000000
vt 0.000000 0.000000
vt 1.000000 1.000000
vn 0.0000 -1.0000 0.0000
usemtl Foregrou
s off
f 1/1/1 2/2/1 3/3/1
f 1/1/1 4/4/1 5/5/1
o Mesh01
v 3.154618 2.766742 1.611795
v -2.378865 2.766742 -1.144947
v 3.154618 2.766742 -1.144947
v -2.378865 2.766742 1.621795
v 3.154618 2.766742 1.621795
v 3.154618 2.766742 1.611795
v 3.204618 2.766742 1.671795
v 3.154618 2.766742 1.621795
v 3.204618 2.766742 1.611795
v 3.154618 2.766742 -1.144947
v 3.204618 2.766742 -1.194947
v -2.378865 2.766742 -1.144947
v -2.428865 2.766742 -1.194947
v -2.428865 2.766742 1.671795
v 3.204618 2.766742 1.671795
v -2.428865 2.855078 1.671795
v -2.428865 2.766742 1.671795
v 3.204618 2.855078 1.671795
v 3.204618 2.766742 1.671795
v 3.204618 2.855078 1.611795
v 3.204618 2.855078 1.671795
v 3.204618 2.855078 -1.194947
v 3.204618 2.766742 -1.194947
v 3.204618 2.766742 1.611795
v 3.204618 2.766742 -1.194947
v -2.428865 2.855078 -1.194947
v 3.204618 2.855078 -1.194947
v -2.428865 2.766742 -1.194947
v -2.428865 2.766742 1.671795
v -2.428865 2.855078 -1.194947
v -2.428865 2.766742 -1.194947
v -2.428865 2.855078 1.671795
v -2.428865 2.855078 1.671795
v -2.378865 2.905078 -1.144947
v -2.428865 2.855078 -1.194947
v -2.378865 2.905078 1.621795
v -2.428865 2.855078 1.671795
v 3.154618 2.905078 1.621795
v -2.378865 2.905078 1.621795
v 3.204618 2.855078 1.671795
v 3.204618 2.855078 1.671795
v 3.154618 2.905078 1.611795
v 3.154618 2.905078 1.621795
v 3.154618 2.905078 -1.144947
v 3.204618 2.855078 -1.194947
v 3.204618 2.855078 1.611795
v 3.204618 2.855078 -1.194947
v -2.378865 2.905078 -1.144947
v 3.154618 2.905078 -1.144947
v -2.428865 2.855078 -1.194947
v -2.378865 2.905078 1.621795
v 3.154618 2.905078 -1.144947
v -2.378865 2.905078 -1.144947
v 3.154618 2.905078 1.611795
v 3.154618 2.905078 1.621795
vt 0.648098 0.000000
vt 0.330388 0.658730
vt 0.330388 0.000000
vt 0.649251 0.658730
vt 0.649251 0.000000
vt 0.323473 0.005952
vt 0.330388 0.000000
vt 0.324625 0.005952
vt 0.323473 0.000000
vt 0.005762 0.005952
vt 0.000000 0.000000
vt 0.005763 0.664683
vt 0.000000 0.670635
vt 0.330388 0.670635
vt 0.324625 0.664683
vt 0.968113 0.000000
vt 0.978294 0.670635
vt 0.968114 0.670635
vt 0.978294 0.000000
vt 0.340568 0.658730
vt 0.330388 0.665873
vt 0.330388 0.658730
vt 0.330388 1.000000
vt 0.340568 1.000000
vt 0.000000 0.000000
vt 0.000000 0.000000
vt 0.000000 0.000000
vt 0.988475 0.000000
vt 0.978294 0.670635
vt 0.978294 0.000000
vt 0.988475 0.670635
vt 0.350749 1.000000
vt 0.340568 0.658730
vt 0.350749 0.658730
vt 0.340569 1.000000
vt 0.362274 1.000000
vt 0.356512 0.664683
vt 0.362274 0.658730
vt 0.356512 0.994048
vt 1.000000 0.000000
vt 0.994238 0.664683
vt 0.994238 0.005952
vt 1.000000 0.670635
vt 0.356512 0.658730
vt 0.350749 0.665873
vt 0.350749 0.664683
vt 0.350749 0.994048
vt 0.356512 1.000000
vt 0.000000 0.000000
vt 0.000000 0.000000
vt 0.000000 0.000000
vt 0.994237 0.000000
vt 0.988475 0.664683
vt 0.988475 0.005952
vt 0.994238 0.670635
vt 0.649251 0.658730
vt 0.968113 0.000000
vt 0.968113 0.658730
vt 0.650403 0.000000
vt 0.649251 0.000000
vn 0.0000 -1.0000 0.0000
vn 0.0000 0.0000 1.0000
vn 1.0000 0.0000 0.0000
vn 0.0000 0.0000 -1.0000
vn -1.0000 0.0000 0.0000
vn -0.7071 0.7071 0.0000
vn 0.0000 0.7071 0.7071
vn 0.7071 0.7071 0.0000
vn 0.0000 0.7071 -0.7071
vn 0.0000 1.0000 0.0000
usemtl None
s off
f 6/6/2 7/7/2 8/8/2
f 7/7/2 6/6/2 9/9/2
f 9/9/2 6/6/2 10/10/2
f 11/11/2 12/12/2 13/13/2
f 11/11/2 14/14/2 12/12/2
f 15/15/2 14/14/2 11/11/2
f 14/14/2 15/15/2 16/16/2
f 17/17/2 16/16/2 15/15/2
f 17/17/2 18/18/2 16/16/2
f 18/18/2 17/17/2 19/19/2
f 19/19/2 17/17/2 9/20/2
f 19/19/2 9/20/2 13/13/2
f 13/13/2 12/12/2 19/19/2
f 20/21/3 21/22/3 22/23/3
f 21/22/3 20/21/3 23/24/3
f 24/25/4 25/26/4 26/27/4
f 25/26/4 24/25/4 27/28/4
f 27/28/4 24/25/4 28/29/4
f 28/30/2 24/31/2 29/32/2
f 30/33/5 31/34/5 32/35/5
f 31/34/5 30/33/5 33/36/5
f 34/37/6 35/38/6 36/39/6
f 35/38/6 34/37/6 37/40/6
f 38/41/7 39/42/7 40/43/7
f 39/42/7 38/41/7 41/44/7
f 42/45/8 43/46/8 44/47/8
f 43/46/8 42/45/8 45/48/8
f 46/49/9 47/50/9 48/51/9
f 47/50/9 46/49/9 49/52/9
f 49/52/9 46/49/9 50/53/9
f 50/54/2 46/55/2 51/56/2
f 52/57/10 53/58/10 54/59/10
f 53/58/10 52/57/10 55/60/10
f 56/61/11 57/62/11 58/63/11
f 57/62/11 56/61/11 59/64/11
f 59/64/11 56/61/11 60/65/11
o Mesh04
v 3.154547 2.895078 1.621795
v 3.154688 2.895078 1.621795
v 3.154688 2.905078 1.611795
v 3.154688 2.905078 1.611795
v 3.154547 2.905078 1.611795
vt 0.000000 0.000000
vt 0.000000 0.000000
vt 1.000000 1.000000
vt 0.000000 0.000000
vt 1.000000 1.000000
vn 0.0000 0.7063 0.7079
vn 0.0000 0.7081 0.7061
usemtl Foregrou
s off
f 61/66/12 62/67/12 63/68/12
f 61/66/13 64/69/13 65/70/13
o Mesh03
v -2.212861 2.490067 -0.928106
v -2.129858 2.766742 -0.928106
v -2.129858 2.490067 -0.928106
v -2.212861 2.766742 -0.928106
v -2.212861 2.490067 -0.928106
v -2.212861 2.766742 1.275121
v -2.212861 2.766742 -0.928106
v -2.212861 2.490067 1.275121
v -2.212861 2.490067 -0.928106
v -2.129858 2.490067 1.275121
v -2.212861 2.490067 1.275121
v -2.129858 2.490067 -0.928106
v -2.129858 2.490067 -0.928106
v -2.129858 2.766742 1.275121
v -2.129858 2.490067 1.275121
v -2.129858 2.766742 -0.928106
v -2.129858 2.766742 -0.798273
v -2.129858 2.766742 -0.798273
v -2.032191 2.766742 -0.895940
v -2.129858 2.766742 -0.928106
v -2.032191 2.766742 -0.798273
v -2.240528 0.200000 -0.798273
v -2.032191 2.766742 -0.798273
v -2.129858 2.766742 -0.798273
v -2.032191 0.200000 -0.798273
v -2.240528 0.200000 -1.006610
v -2.032191 0.200000 -0.798273
v -2.240528 0.200000 -0.798273
v -2.032191 0.200000 -1.006610
v -2.240528 0.200000 -1.006610
v -2.032191 2.766742 -1.006610
v -2.032191 0.200000 -1.006610
v -2.240528 2.766742 -1.006610
v -2.240528 0.200000 -1.006610
v -2.240528 2.766742 -0.798273
v -2.240528 2.766742 -1.006610
v -2.240528 0.200000 -0.798273
v -2.212861 2.766742 -0.798273
v -2.240528 2.766742 -0.798273
v -2.212861 2.766742 1.275121
v -2.212861 2.766742 -0.798273
v -2.129858 2.766742 1.275121
v -2.240528 2.766742 1.275121
v -2.202330 2.766742 1.372788
v -2.202330 2.766742 1.455790
v -2.240528 2.766742 1.483458
v -2.032191 2.766742 1.455790
v -2.032191 2.766742 1.483458
v -2.240528 2.766742 1.483458
v -2.032191 0.200000 1.483458
v -2.032191 2.766742 1.483458
v -2.240528 0.200000 1.483458
v -2.240528 2.766742 1.483458
v -2.240528 0.200000 1.275121
v -2.240528 0.200000 1.483458
v -2.240528 2.766742 1.275121
v -2.212861 2.766742 1.275121
v -2.240528 0.200000 1.275121
v -2.240528 2.766742 1.275121
v -2.212861 2.490067 1.275121
v -2.129858 2.490067 1.275121
v -2.032191 2.766742 1.275121
v -2.032191 0.200000 1.275121
v -2.032191 2.766742 1.275121
v -2.032191 2.766742 1.372788
v -2.032191 0.200000 1.275121
v -2.032191 2.766742 1.275121
v -2.032191 2.766742 1.372788
v -2.129858 2.766742 1.275121
v -2.202330 2.490067 1.455790
v -2.032191 2.766742 1.455790
v -2.202330 2.766742 1.455790
v 2.807944 2.490067 1.455790
v 2.807944 2.766742 1.455790
v 2.807944 2.490067 1.455790
v 2.807944 2.766742 1.483458
v 2.807944 2.766742 1.455790
v 2.807944 0.200000 1.275121
v 2.807944 0.200000 1.483458
v 2.807944 0.200000 1.275121
v 3.016281 0.200000 1.483458
v 2.807944 0.200000 1.483458
v 3.016281 0.200000 1.275121
v 2.807944 0.200000 1.275121
v 3.016281 2.766742 1.275121
v 3.016281 0.200000 1.275121
v 2.988614 2.766742 1.275121
v 2.905611 2.766742 1.275121
v 2.807944 2.766742 1.275121
v 2.807944 2.490067 1.372788
v 2.807944 2.766742 1.275121
v 2.807944 2.490067 1.455790
v -2.202330 2.490067 1.372788
v 2.807944 2.490067 1.372788
v -2.202330 2.490067 1.455790
v -2.202330 2.766742 1.455790
v -2.202330 2.490067 1.372788
v -2.202330 2.490067 1.455790
v -2.202330 2.766742 1.372788
v -2.032191 2.766742 1.372788
v -2.202330 2.490067 1.372788
v -2.202330 2.766742 1.372788
v 2.807944 2.766742 1.372788
v 2.807944 2.490067 1.372788
v 2.807944 2.766742 1.372788
v 2.807944 2.766742 1.372788
v 2.905611 2.766742 1.275121
v 2.807944 2.766742 1.275121
v 2.807944 2.766742 1.455790
v 2.905611 2.766742 1.455790
v 2.988614 2.766742 1.455790
v 2.807944 2.766742 1.483458
v 3.016281 2.766742 1.483458
v 3.016281 2.766742 1.275121
v 3.016281 2.766742 1.483458
v 3.016281 0.200000 1.275121
v 3.016281 2.766742 1.275121
v 3.016281 0.200000 1.483458
v 2.807944 2.766742 1.483458
v 3.016281 0.200000 1.483458
v 3.016281 2.766742 1.483458
v 2.807944 0.200000 1.483458
v 2.988614 2.766742 1.275121
v 2.988614 2.766742 1.455790
v 2.988614 2.766742 -0.798273
v 2.988614 2.766742 1.275121
v 2.988614 2.490067 -0.798273
v 2.988614 2.490067 1.455790
v 2.905611 2.766742 1.455790
v 2.988614 2.490067 1.455790
v 2.988614 2.766742 1.455790
v 2.905611 2.490067 1.455790
v 2.905611 2.766742 1.455790
v 2.905611 2.490067 -0.798273
v 2.905611 2.490067 1.455790
v 2.905611 2.766742 -0.798273
v 2.905611 2.766742 1.275121
v 2.905611 2.766742 -0.798273
v 2.988614 2.766742 -0.798273
v 3.003189 2.766742 -0.895940
v 3.016281 2.766742 -0.798273
v 3.016281 2.766742 -1.006610
v 3.016281 2.766742 -0.798273
v 3.016281 0.126029 -1.006610
v 3.016281 2.766742 -1.006610
v 3.016281 0.126029 -0.798273
v 2.988614 2.766742 -0.798273
v 3.016281 0.126029 -0.798273
v 3.016281 2.766742 -0.798273
v 2.988614 2.490067 -0.798273
v 2.807944 0.126029 -0.798273
v 2.905611 2.490067 -0.798273
v 2.988614 2.490067 1.455790
v 2.905611 2.490067 -0.798273
v 2.988614 2.490067 -0.798273
v 2.905611 2.490067 1.455790
v 2.807944 2.766742 -0.798273
v 2.905611 2.766742 -0.798273
v 2.807944 2.766742 -0.798273
v 2.807944 2.766742 -0.895940
v 2.807944 2.766742 -1.006610
v 2.807944 2.766742 -0.798273
v 2.807944 2.766742 -0.895940
v 2.807944 0.126029 -1.006610
v 2.807944 0.126029 -0.798273
v 2.807944 0.126029 -1.006610
v 3.016281 0.126029 -0.798273
v 2.807944 0.126029 -0.798273
v 3.016281 0.126029 -1.006610
v 2.807944 0.126029 -1.006610
v 3.016281 2.766742 -1.006610
v 3.016281 0.126029 -1.006610
v 2.807944 2.766742 -1.006610
v 2.807944 2.766742 -0.978942
v 2.807944 2.766742 -1.006610
v 3.003189 2.766742 -0.978942
v 3.003189 2.490067 -0.895940
v 3.003189 2.766742 -0.978942
v 3.003189 2.766742 -0.895940
v 3.003189 2.490067 -0.978942
v 3.003189 2.490067 -0.895940
v -2.032191 2.490067 -0.978942
v 3.003189 2.490067 -0.978942
v -2.032191 2.490067 -0.895940
v 3.003189 2.490067 -0.895940
v 2.807944 2.766742 -0.895940
v -2.032191 2.490067 -0.895940
v 3.003189 2.766742 -0.895940
v 3.003189 2.766742 -0.978942
v -2.032191 2.490067 -0.978942
v 2.807944 2.766742 -0.978942
v 3.003189 2.490067 -0.978942
v -2.032191 2.766742 -0.978942
v -2.032191 2.490067 -0.978942
v -2.032191 2.766742 -1.006610
v -2.032191 2.766742 -0.978942
v -2.032191 0.200000 -1.006610
v -2.032191 2.490067 -0.895940
v -2.032191 2.766742 -0.798273
v -2.032191 0.200000 -0.798273
v -2.032191 2.766742 -0.895940
v -2.032191 2.766742 -0.895940
v -2.212861 2.766742 -0.928106
v -2.032191 2.766742 -0.978942
v -2.240528 2.766742 -1.006610
v -2.240528 2.766742 -0.798273
v -2.212861 2.766742 -0.798273
v -2.032191 2.766742 -1.006610
v 2.807944 2.766742 -0.978942
v -2.032191 2.766742 1.483458
v -2.032191 2.766742 1.455790
v -2.032191 0.200000 1.483458
v -2.032191 0.200000 1.483458
v -2.240528 0.200000 1.275121
v -2.032191 0.200000 1.275121
v -2.240528 0.200000 1.483458
vt 0.413543 0.983762
vt 0.422563 0.931131
vt 0.422563 0.983762
vt 0.413543 0.931131
vt 0.481108 0.419119
vt 0.451039 0.838237
vt 0.451039 0.419119
vt 0.481108 0.838237
vt 0.657646 0.000000
vt 0.666667 0.419119
vt 0.657646 0.419119
vt 0.666667 0.000000
vt 0.451039 0.000000
vt 0.481108 0.419119
vt 0.451039 0.419119
vt 0.481108 0.000000
vt 0.000000 0.000000
vt 0.000000 0.000000
vt 0.000000 0.000000
vt 0.247981 0.978947
vt 0.258595 0.960368
vt 0.262091 0.978947
vt 0.247981 0.960368
vt 0.571677 0.488270
vt 0.549035 0.000000
vt 0.559650 0.000000
vt 0.549035 0.488270
vt 0.451039 0.917501
vt 0.473681 0.957133
vt 0.451039 0.957133
vt 0.473681 0.917501
vt 0.571677 0.488270
vt 0.594320 0.000000
vt 0.594320 0.488270
vt 0.571677 0.000000
vt 0.549035 0.488270
vt 0.526393 0.000000
vt 0.549035 0.000000
vt 0.526393 0.488270
vt 0.568670 0.000000
vt 0.571677 0.000000
vt 0.022642 0.994737
vt 0.247981 0.994737
vt 0.022642 0.978947
vt 0.000000 0.000000
vt 0.000000 0.000000
vt 0.000000 0.000000
vt 0.022642 1.000000
vt 0.012028 0.992734
vt 0.003007 0.992734
vt 0.000000 1.000000
vt 0.003007 0.960368
vt 0.000000 0.960368
vt 0.571677 0.488270
vt 0.549035 0.976540
vt 0.549035 0.488270
vt 0.571677 0.976540
vt 0.481108 0.502342
vt 0.503750 0.990611
vt 0.481108 0.990611
vt 0.503750 0.502342
vt 0.574684 0.488270
vt 0.571677 0.976540
vt 0.571677 0.488270
vt 0.574684 0.540902
vt 0.583705 0.540902
vt 0.594320 0.488270
vt 0.594320 0.976540
vt 0.616962 0.488270
vt 0.606347 0.488270
vt 0.616962 0.000000
vt 0.022642 0.960368
vt 0.012028 0.960368
vt 0.583705 0.488270
vt 0.330762 0.953102
vt 0.360831 0.920736
vt 0.360831 0.953102
vt 0.330762 0.000000
vt 0.360831 0.000000
vt 0.506757 0.554973
vt 0.503750 0.502342
vt 0.506757 0.502342
vt 0.526393 0.990611
vt 0.503750 0.990611
vt 0.413543 0.970763
vt 0.390900 0.931131
vt 0.413543 0.931131
vt 0.390900 0.970763
vt 0.639604 0.000000
vt 0.616962 0.488270
vt 0.616962 0.000000
vt 0.619969 0.488270
vt 0.628990 0.488270
vt 0.639604 0.488270
vt 0.515778 0.554973
vt 0.526393 0.502342
vt 0.657646 0.000000
vt 0.648625 0.953102
vt 0.648625 0.000000
vt 0.657646 0.953102
vt 0.436185 0.857579
vt 0.445206 0.910210
vt 0.436185 0.910210
vt 0.445206 0.857579
vt 0.360831 0.920737
vt 0.390900 0.953102
vt 0.360831 0.953102
vt 0.360831 0.000000
vt 0.390900 0.000000
vt 0.515778 0.502342
vt 0.012028 0.039632
vt 0.022642 0.021053
vt 0.022642 0.039632
vt 0.003007 0.039632
vt 0.003007 0.021053
vt 0.000000 0.000000
vt 0.000000 0.000000
vt 0.000000 0.000000
vt 0.003007 0.005263
vt 0.000000 0.039632
vt 0.000000 0.000000
vt 0.022642 0.000000
vt 0.594320 0.976540
vt 0.616962 0.488270
vt 0.616962 0.976540
vt 0.594320 0.488270
vt 0.639604 0.488270
vt 0.616962 0.976540
vt 0.616962 0.488270
vt 0.639604 0.976540
vt 0.022642 0.005263
vt 0.000000 0.000000
vt 0.000000 0.000000
vt 0.000000 0.000000
vt 0.390900 0.000000
vt 0.420970 0.428789
vt 0.390900 0.428789
vt 0.420970 0.000000
vt 0.445206 0.910210
vt 0.436185 0.962842
vt 0.436185 0.910210
vt 0.445206 0.962842
vt 0.420970 0.428789
vt 0.451039 0.000000
vt 0.451039 0.428789
vt 0.420970 0.000000
vt 0.000000 0.000000
vt 0.000000 0.000000
vt 0.000000 0.000000
vt 0.247981 0.021053
vt 0.247981 0.005263
vt 0.258595 0.002490
vt 0.247981 0.000000
vt 0.270623 0.000000
vt 0.503750 0.502341
vt 0.526393 0.000000
vt 0.526393 0.502341
vt 0.503750 0.000000
vt 0.393907 0.428789
vt 0.390900 0.931131
vt 0.390900 0.428789
vt 0.393907 0.481421
vt 0.413543 0.931131
vt 0.402928 0.481421
vt 0.445206 0.857579
vt 0.436185 0.428789
vt 0.445206 0.428789
vt 0.436185 0.857579
vt 0.413543 0.428789
vt 0.402928 0.428789
vt 0.247981 0.039632
vt 0.258595 0.039632
vt 0.000000 0.000000
vt 0.000000 0.000000
vt 0.000000 0.000000
vt 0.503750 0.502342
vt 0.481108 0.000000
vt 0.503750 0.000000
vt 0.481108 0.502342
vt 0.451039 0.838238
vt 0.473681 0.877869
vt 0.451039 0.877869
vt 0.473681 0.838237
vt 0.413543 0.931131
vt 0.436185 0.428789
vt 0.436185 0.931131
vt 0.413543 0.428789
vt 0.267616 0.039632
vt 0.270623 0.039632
vt 0.267616 0.002490
vt 0.431584 0.983762
vt 0.422563 0.931131
vt 0.431584 0.931131
vt 0.422563 0.983762
vt 0.648625 0.000000
vt 0.639604 0.957878
vt 0.639604 0.000000
vt 0.648625 0.957878
vt 0.270623 0.000000
vt 0.300692 0.037141
vt 0.270623 0.957878
vt 0.300692 0.000000
vt 0.300692 0.000000
vt 0.330762 0.957878
vt 0.300692 0.037141
vt 0.330762 0.000000
vt 0.300692 0.957878
vt 0.529400 0.540902
vt 0.526393 0.488270
vt 0.529400 0.488270
vt 0.526393 0.976540
vt 0.538420 0.540902
vt 0.549035 0.488270
vt 0.549035 0.976540
vt 0.538420 0.488270
vt 0.300692 0.957878
vt 0.262091 0.994737
vt 0.267616 0.960368
vt 0.270623 1.000000
vt 0.247981 1.000000
vt 0.000000 0.000000
vt 0.000000 0.000000
vt 0.000000 0.000000
vt 0.270623 0.960368
vt 0.000000 0.000000
vt 0.000000 0.000000
vt 0.000000 0.000000
vt 0.000000 0.000000
vt 0.594320 0.488270
vt 0.594320 0.000000
vt 0.451039 0.877869
vt 0.473681 0.917501
vt 0.451039 0.917501
vt 0.473681 0.877869
vn 0.0000 0.0000 -1.0000
vn -1.0000 0.0000 0.0000
vn 0.0000 -1.0000 0.0000
vn 1.0000 0.0000 0.0000
vn 0.0000 1.0000 0.0000
vn 0.0000 0.0000 1.0000
vn 0.0000 1.0000 -0.0005
usemtl FrontCol
s off
f 66/71/14 67/72/14 68/73/14
f 67/72/14 66/71/14 69/74/14
f 70/75/15 71/76/15 72/77/15
f 71/76/15 70/75/15 73/78/15
f 74/79/16 75/80/16 76/81/16
f 75/80/16 74/79/16 77/82/16
f 78/83/17 79/84/17 80/85/17
f 79/84/17 78/83/17 81/86/17
f 79/87/16 81/88/16 82/89/16
f 83/90/18 84/91/18 85/92/18
f 84/91/18 83/90/18 86/93/18
f 87/94/19 88/95/19 89/96/19
f 88/95/19 87/94/19 90/97/19
f 91/98/16 92/99/16 93/100/16
f 92/99/16 91/98/16 94/101/16
f 95/102/14 96/103/14 97/104/14
f 96/103/14 95/102/14 98/105/14
f 99/106/15 100/107/15 101/108/15
f 100/107/15 99/106/15 102/109/15
f 87/94/19 103/110/19 104/111/19
f 87/94/19 89/96/19 103/110/19
f 105/112/18 83/90/18 106/113/18
f 83/90/18 105/112/18 107/114/18
f 108/115/14 107/116/14 105/117/14
f 108/118/18 109/119/18 107/114/18
f 108/118/18 110/120/18 109/119/18
f 111/121/18 110/120/18 108/118/18
f 111/121/18 112/122/18 110/120/18
f 112/122/18 111/121/18 113/123/18
f 114/124/19 115/125/19 116/126/19
f 115/125/19 114/124/19 117/127/19
f 118/128/15 119/129/15 120/130/15
f 119/129/15 118/128/15 121/131/15
f 122/132/14 123/133/14 124/134/14
f 125/135/14 123/133/14 122/132/14
f 126/136/14 123/133/14 125/135/14
f 127/137/14 123/133/14 126/136/14
f 123/133/14 127/137/14 128/138/14
f 129/139/17 130/140/17 131/141/17
f 132/142/18 109/119/18 133/143/18
f 109/119/18 132/142/18 107/114/18
f 134/144/14 127/137/14 126/136/14
f 110/120/18 133/143/18 109/119/18
f 133/143/18 110/120/18 112/122/18
f 135/145/19 136/146/19 137/147/19
f 138/148/19 136/146/19 135/145/19
f 136/146/19 138/148/19 139/149/19
f 140/150/15 141/151/15 142/152/15
f 143/153/15 141/151/15 140/150/15
f 141/151/15 143/153/15 144/154/15
f 145/155/16 146/156/16 147/157/16
f 146/156/16 145/155/16 148/158/16
f 149/159/14 150/160/14 151/161/14
f 150/160/14 149/159/14 152/162/14
f 152/162/14 149/159/14 153/163/14
f 153/163/14 149/159/14 154/164/14
f 143/153/15 155/165/15 156/166/15
f 155/165/15 143/153/15 140/150/15
f 157/167/16 158/168/16 159/169/16
f 158/168/16 157/167/16 160/170/16
f 161/171/15 162/172/15 163/173/15
f 162/172/15 161/171/15 164/174/15
f 165/175/14 166/176/14 167/177/14
f 168/178/14 166/176/14 165/175/14
f 166/176/14 168/178/14 169/179/14
f 156/166/15 155/165/15 170/180/15
f 171/181/18 172/182/18 173/183/18
f 174/184/18 172/182/18 171/181/18
f 174/184/18 175/185/18 172/182/18
f 174/186/19 176/187/19 175/188/19
f 176/189/18 174/184/18 177/190/18
f 178/191/18 176/189/18 177/190/18
f 176/189/18 178/191/18 179/192/18
f 180/193/17 181/194/17 182/195/17
f 181/194/17 180/193/17 183/196/17
f 184/197/19 185/198/19 186/199/19
f 185/198/19 184/197/19 187/200/19
f 176/189/18 179/192/18 188/201/18
f 189/202/18 190/203/18 191/204/18
f 189/205/17 192/206/17 190/207/17
f 192/206/17 189/205/17 193/208/17
f 194/209/19 195/210/19 196/211/19
f 195/210/19 194/209/19 197/212/19
f 198/213/15 199/214/15 200/215/15
f 199/214/15 198/213/15 201/216/15
f 201/217/16 198/218/16 202/219/16
f 175/185/18 188/201/18 172/182/18
f 188/201/18 175/185/18 176/189/18
f 188/201/18 203/220/18 172/182/18
f 203/220/18 188/201/18 204/221/18
f 204/221/18 205/222/18 203/220/18
f 206/223/18 205/222/18 204/221/18
f 205/222/18 206/223/18 207/224/18
f 208/225/17 209/226/17 210/227/17
f 209/226/17 208/225/17 211/228/17
f 212/229/19 213/230/19 214/231/19
f 213/230/19 212/229/19 215/232/19
f 213/230/19 215/232/19 216/233/19
f 216/233/19 215/232/19 217/234/19
f 218/235/16 219/236/16 220/237/16
f 219/236/16 218/235/16 221/238/16
f 216/233/19 217/234/19 222/239/19
f 222/239/19 217/234/19 223/240/19
f 203/220/18 205/222/18 224/241/18
f 225/242/18 224/241/18 205/222/18
f 226/243/19 227/244/19 228/245/19
f 229/246/15 227/247/15 226/248/15
f 227/247/15 229/246/15 230/249/15
f 231/250/16 232/251/16 233/252/16
f 232/251/16 231/250/16 234/253/16
f 235/254/14 236/255/14 237/256/14
f 236/255/14 235/254/14 238/257/14
f 239/258/18 207/224/18 240/259/18
f 241/260/18 207/224/18 239/258/18
f 205/222/18 207/224/18 241/260/18
f 242/261/17 243/262/17 244/263/17
f 243/262/17 242/261/17 245/264/17
f 246/265/16 247/266/16 248/267/16
f 247/266/16 246/265/16 249/268/16
f 250/269/19 251/270/19 252/271/19
f 251/270/19 250/269/19 253/272/19
f 241/260/18 225/242/18 205/222/18
f 225/242/18 241/260/18 239/258/18
f 254/273/14 255/274/14 256/275/14
f 255/274/14 254/273/14 257/276/14
f 256/275/14 255/274/14 258/277/14
f 259/278/17 260/279/17 261/280/17
f 260/279/17 259/278/17 262/281/17
f 263/282/17 262/281/17 259/278/17
f 264/283/17 262/281/17 263/282/17
f 262/281/17 264/283/17 265/284/17
f 264/283/17 263/282/17 266/285/17
f 252/271/19 251/270/19 267/286/19
f 239/258/18 84/91/18 225/242/18
f 84/91/18 239/258/18 85/92/18
f 85/92/20 239/258/20 268/287/20
f 268/287/18 239/258/18 269/288/18
f 270/289/18 268/287/18 269/288/18
f 271/290/18 268/287/18 270/289/18
f 268/287/18 271/290/18 106/113/18
f 72/291/19 71/292/19 272/293/19
f 106/113/18 85/92/18 268/287/18
f 85/92/18 106/113/18 83/90/18
f 270/289/18 269/288/18 273/294/18
f 226/243/19 228/245/19 274/295/19
f 133/143/18 174/184/18 171/181/18
f 174/184/18 133/143/18 112/122/18
f 275/296/19 130/297/19 276/298/19
f 275/299/17 131/141/17 130/140/17
f 131/141/17 275/299/17 277/300/17
f 278/301/16 279/302/16 280/303/16
f 279/302/16 278/301/16 281/304/16
